# xmcd
#
# Track frame offsets:
#	182
#	15182
#	35232
#	50520
#	72232
#	87820
#	104745
#	120957
#	134020
#	150082
#	165845
#	181457
#
# Disc length: 2579 seconds
#
# Revision: 4
# Processed by: cddbd v1.5.2PL0 Copyright (c) Steve Scherf et al.
# Submitted via: EasyCDDAExtractor 11.1.0.1
#
DISCID=900a110c
DTITLE=Little Charlie And The Nightcats - The Big Break!
DYEAR=1989
DGENRE=Blues
TTITLE0=The Big Break
TTITLE1=Don't Do It
TTITLE2=Dump That Chump
TTITLE3=I Beg Your Pardon
TTITLE4=Kansas City Woman
TTITLE5=Hurry Up And Wait
TTITLE6=That's O.K.
TTITLE7=Jump Start
TTITLE8=Side Stuff
TTITLE9=Some Nerve
TTITLE10=Lottery
TTITLE11=Me And Miss Ann
EXTD=
EXTT0=
EXTT1=
EXTT2=
EXTT3=
EXTT4=
EXTT5=
EXTT6=
EXTT7=
EXTT8=
EXTT9=
EXTT10=
EXTT11=
PLAYORDER=
